<svg xmlns="http://www.w3.org/2000/svg" version="1.1" xmlns:xlink="http://www.w3.org/1999/xlink" xmlns:svgjs="http://svgjs.com/svgjs" width="1000" height="500" preserveAspectRatio="none" viewBox="0 0 1000 500"><g mask="url(&quot;#SvgjsMask1128&quot;)" fill="none"><rect width="1000" height="500" x="0" y="0" fill="url(#SvgjsLinearGradient1129)"></rect><path d="M0 0L252.31 0L0 128.45z" fill="rgba(255, 255, 255, .1)"></path><path d="M0 128.45L252.31 0L304.03 0L0 298.65999999999997z" fill="rgba(255, 255, 255, .075)"></path><path d="M0 298.65999999999997L304.03 0L361.9 0L0 393.92999999999995z" fill="rgba(255, 255, 255, .05)"></path><path d="M0 393.92999999999995L361.9 0L784.0799999999999 0L0 457.0899999999999z" fill="rgba(255, 255, 255, .025)"></path><path d="M1000 500L654.8199999999999 500L1000 250.64z" fill="rgba(0, 0, 0, .1)"></path><path d="M1000 250.64L654.8199999999999 500L551.3 500L1000 158.26z" fill="rgba(0, 0, 0, .075)"></path><path d="M1000 158.26L551.3 500L251.10999999999996 500L1000 143.70999999999998z" fill="rgba(0, 0, 0, .05)"></path><path d="M1000 143.70999999999998L251.11 500L171.61 500L1000 53.92999999999998z" fill="rgba(0, 0, 0, .025)"></path></g><defs><mask id="SvgjsMask1128"><rect width="1000" height="500" fill="#ffffff"></rect></mask><linearGradient x1="87.5%" y1="-25%" x2="12.5%" y2="125%" gradientUnits="userSpaceOnUse" id="SvgjsLinearGradient1129"><stop stop-color="rgba(7, 61, 168, 1)" offset="0"></stop><stop stop-color="rgba(4, 38, 105, 1)" offset="1"></stop></linearGradient></defs></svg>