<svg xmlns="http://www.w3.org/2000/svg" version="1.1" xmlns:xlink="http://www.w3.org/1999/xlink" xmlns:svgjs="http://svgjs.com/svgjs" width="1000" height="560" preserveAspectRatio="none" viewBox="0 0 1000 560"><g mask="url(&quot;#SvgjsMask1094&quot;)" fill="none"><rect width="1000" height="560" x="0" y="0" fill="rgba(4, 33, 92, 1)"></rect><g mask="url(&quot;#SvgjsMask1095&quot;)"><path d="M777 399L819 399L987 567" stroke-width="7" stroke="rgba(28, 58, 117, 1)"></path><path d="M766.5 399 a10.5 10.5 0 1 0 21 0 a10.5 10.5 0 1 0 -21 0zM976.5 567 a10.5 10.5 0 1 0 21 0 a10.5 10.5 0 1 0 -21 0z" fill="rgba(28, 58, 117, 1)"></path><path d="M315 567L63 315L63 147L189 21L441 21" stroke-width="7" stroke="rgba(28, 58, 117, 1)"></path><path d="M304.5 567 a10.5 10.5 0 1 0 21 0 a10.5 10.5 0 1 0 -21 0zM430.5 21 a10.5 10.5 0 1 0 21 0 a10.5 10.5 0 1 0 -21 0z" fill="rgba(28, 58, 117, 1)"></path><path d="M189 63L609 63L651 21L987 21" stroke-width="7" stroke="rgba(28, 58, 117, 1)"></path><path d="M178.5 63 a10.5 10.5 0 1 0 21 0 a10.5 10.5 0 1 0 -21 0zM976.5 21 a10.5 10.5 0 1 0 21 0 a10.5 10.5 0 1 0 -21 0z" fill="rgba(28, 58, 117, 1)"></path><path d="M21 63L21 567" stroke-width="7" stroke="rgba(28, 58, 117, 1)"></path><path d="M10.5 63 a10.5 10.5 0 1 0 21 0 a10.5 10.5 0 1 0 -21 0zM10.5 567 a10.5 10.5 0 1 0 21 0 a10.5 10.5 0 1 0 -21 0z" fill="rgba(28, 58, 117, 1)"></path><path d="M777 483L399 105L147 105L105 147L105 273" stroke-width="7" stroke="rgba(28, 58, 117, 1)"></path><path d="M766.5 483 a10.5 10.5 0 1 0 21 0 a10.5 10.5 0 1 0 -21 0zM94.5 273 a10.5 10.5 0 1 0 21 0 a10.5 10.5 0 1 0 -21 0z" fill="rgba(28, 58, 117, 1)"></path><path d="M525 189L609 273L903 273L987 189L987 63" stroke-width="7" stroke="rgba(28, 58, 117, 1)"></path><path d="M514.5 189 a10.5 10.5 0 1 0 21 0 a10.5 10.5 0 1 0 -21 0zM976.5 63 a10.5 10.5 0 1 0 21 0 a10.5 10.5 0 1 0 -21 0z" fill="rgba(28, 58, 117, 1)"></path><path d="M273 441L273 147" stroke-width="7" stroke="rgba(28, 58, 117, 1)"></path><path d="M262.5 441 a10.5 10.5 0 1 0 21 0 a10.5 10.5 0 1 0 -21 0zM262.5 147 a10.5 10.5 0 1 0 21 0 a10.5 10.5 0 1 0 -21 0z" fill="rgba(28, 58, 117, 1)"></path><path d="M525 441L525 273L399 147L315 147" stroke-width="7" stroke="rgba(28, 58, 117, 1)"></path><path d="M514.5 441 a10.5 10.5 0 1 0 21 0 a10.5 10.5 0 1 0 -21 0zM304.5 147 a10.5 10.5 0 1 0 21 0 a10.5 10.5 0 1 0 -21 0z" fill="rgba(28, 58, 117, 1)"></path><path d="M651 189L567 189L483 105L441 105" stroke-width="7" stroke="rgba(28, 58, 117, 1)"></path><path d="M640.5 189 a10.5 10.5 0 1 0 21 0 a10.5 10.5 0 1 0 -21 0zM430.5 105 a10.5 10.5 0 1 0 21 0 a10.5 10.5 0 1 0 -21 0z" fill="rgba(28, 58, 117, 1)"></path><path d="M147 357L231 273L231 147" stroke-width="7" stroke="rgba(28, 58, 117, 1)"></path><path d="M136.5 357 a10.5 10.5 0 1 0 21 0 a10.5 10.5 0 1 0 -21 0zM220.5 147 a10.5 10.5 0 1 0 21 0 a10.5 10.5 0 1 0 -21 0z" fill="rgba(28, 58, 117, 1)"></path><path d="M357 273L315 315L315 399L483 567L735 567" stroke-width="7" stroke="rgba(28, 58, 117, 1)"></path><path d="M346.5 273 a10.5 10.5 0 1 0 21 0 a10.5 10.5 0 1 0 -21 0zM724.5 567 a10.5 10.5 0 1 0 21 0 a10.5 10.5 0 1 0 -21 0z" fill="rgba(28, 58, 117, 1)"></path><path d="M231 567L231 525L147 441L63 441" stroke-width="7" stroke="rgba(28, 58, 117, 1)"></path><path d="M220.5 567 a10.5 10.5 0 1 0 21 0 a10.5 10.5 0 1 0 -21 0zM52.5 441 a10.5 10.5 0 1 0 21 0 a10.5 10.5 0 1 0 -21 0z" fill="rgba(28, 58, 117, 1)"></path><path d="M567 525L735 525" stroke-width="7" stroke="rgba(28, 58, 117, 1)"></path><path d="M556.5 525 a10.5 10.5 0 1 0 21 0 a10.5 10.5 0 1 0 -21 0zM724.5 525 a10.5 10.5 0 1 0 21 0 a10.5 10.5 0 1 0 -21 0z" fill="rgba(28, 58, 117, 1)"></path><path d="M819 189L945 63" stroke-width="7" stroke="rgba(28, 58, 117, 1)"></path><path d="M808.5 189 a10.5 10.5 0 1 0 21 0 a10.5 10.5 0 1 0 -21 0zM934.5 63 a10.5 10.5 0 1 0 21 0 a10.5 10.5 0 1 0 -21 0z" fill="rgba(28, 58, 117, 1)"></path><path d="M441 441L441 231L399 189L315 189" stroke-width="7" stroke="rgba(28, 58, 117, 1)"></path><path d="M430.5 441 a10.5 10.5 0 1 0 21 0 a10.5 10.5 0 1 0 -21 0zM304.5 189 a10.5 10.5 0 1 0 21 0 a10.5 10.5 0 1 0 -21 0z" fill="rgba(28, 58, 117, 1)"></path><path d="M651 483L441 483" stroke-width="7" stroke="rgba(28, 58, 117, 1)"></path><path d="M640.5 483 a10.5 10.5 0 1 0 21 0 a10.5 10.5 0 1 0 -21 0zM430.5 483 a10.5 10.5 0 1 0 21 0 a10.5 10.5 0 1 0 -21 0z" fill="rgba(28, 58, 117, 1)"></path><path d="M945 315L651 315" stroke-width="7" stroke="rgba(28, 58, 117, 1)"></path><path d="M934.5 315 a10.5 10.5 0 1 0 21 0 a10.5 10.5 0 1 0 -21 0zM640.5 315 a10.5 10.5 0 1 0 21 0 a10.5 10.5 0 1 0 -21 0z" fill="rgba(28, 58, 117, 1)"></path><path d="M819 357L987 357" stroke-width="7" stroke="rgba(28, 58, 117, 1)"></path><path d="M808.5 357 a10.5 10.5 0 1 0 21 0 a10.5 10.5 0 1 0 -21 0zM976.5 357 a10.5 10.5 0 1 0 21 0 a10.5 10.5 0 1 0 -21 0z" fill="rgba(28, 58, 117, 1)"></path><path d="M903 525L861 483L819 483L777 441" stroke-width="7" stroke="rgba(28, 58, 117, 1)"></path><path d="M892.5 525 a10.5 10.5 0 1 0 21 0 a10.5 10.5 0 1 0 -21 0zM766.5 441 a10.5 10.5 0 1 0 21 0 a10.5 10.5 0 1 0 -21 0z" fill="rgba(28, 58, 117, 1)"></path><path d="M399 273L399 441" stroke-width="7" stroke="rgba(28, 58, 117, 1)"></path><path d="M388.5 273 a10.5 10.5 0 1 0 21 0 a10.5 10.5 0 1 0 -21 0zM388.5 441 a10.5 10.5 0 1 0 21 0 a10.5 10.5 0 1 0 -21 0z" fill="rgba(28, 58, 117, 1)"></path><path d="M777 105L735 63L651 63L567 147" stroke-width="7" stroke="rgba(28, 58, 117, 1)"></path><path d="M766.5 105 a10.5 10.5 0 1 0 21 0 a10.5 10.5 0 1 0 -21 0zM556.5 147 a10.5 10.5 0 1 0 21 0 a10.5 10.5 0 1 0 -21 0z" fill="rgba(28, 58, 117, 1)"></path><path d="M987 441L903 441L861 399" stroke-width="7" stroke="rgba(28, 58, 117, 1)"></path><path d="M976.5 441 a10.5 10.5 0 1 0 21 0 a10.5 10.5 0 1 0 -21 0zM850.5 399 a10.5 10.5 0 1 0 21 0 a10.5 10.5 0 1 0 -21 0z" fill="rgba(28, 58, 117, 1)"></path><path d="M147 525L105 483L63 483" stroke-width="7" stroke="rgba(28, 58, 117, 1)"></path><path d="M136.5 525 a10.5 10.5 0 1 0 21 0 a10.5 10.5 0 1 0 -21 0zM52.5 483 a10.5 10.5 0 1 0 21 0 a10.5 10.5 0 1 0 -21 0z" fill="rgba(28, 58, 117, 1)"></path><path d="M399 567L399 525L315 441" stroke-width="7" stroke="rgba(28, 58, 117, 1)"></path><path d="M388.5 567 a10.5 10.5 0 1 0 21 0 a10.5 10.5 0 1 0 -21 0zM304.5 441 a10.5 10.5 0 1 0 21 0 a10.5 10.5 0 1 0 -21 0z" fill="rgba(28, 58, 117, 1)"></path><path d="M63 105L63 21" stroke-width="7" stroke="rgba(28, 58, 117, 1)"></path><path d="M52.5 105 a10.5 10.5 0 1 0 21 0 a10.5 10.5 0 1 0 -21 0zM52.5 21 a10.5 10.5 0 1 0 21 0 a10.5 10.5 0 1 0 -21 0z" fill="rgba(28, 58, 117, 1)"></path><path d="M777 147L819 147L903 63" stroke-width="7" stroke="rgba(28, 58, 117, 1)"></path><path d="M766.5 147 a10.5 10.5 0 1 0 21 0 a10.5 10.5 0 1 0 -21 0zM892.5 63 a10.5 10.5 0 1 0 21 0 a10.5 10.5 0 1 0 -21 0z" fill="rgba(28, 58, 117, 1)"></path><path d="M735 231L819 231" stroke-width="7" stroke="rgba(28, 58, 117, 1)"></path><path d="M724.5 231 a10.5 10.5 0 1 0 21 0 a10.5 10.5 0 1 0 -21 0zM808.5 231 a10.5 10.5 0 1 0 21 0 a10.5 10.5 0 1 0 -21 0z" fill="rgba(28, 58, 117, 1)"></path><path d="M483 21L609 21" stroke-width="7" stroke="rgba(28, 58, 117, 1)"></path><path d="M472.5 21 a10.5 10.5 0 1 0 21 0 a10.5 10.5 0 1 0 -21 0zM598.5 21 a10.5 10.5 0 1 0 21 0 a10.5 10.5 0 1 0 -21 0z" fill="rgba(28, 58, 117, 1)"></path><path d="M735 189L735 105" stroke-width="7" stroke="rgba(28, 58, 117, 1)"></path><path d="M724.5 189 a10.5 10.5 0 1 0 21 0 a10.5 10.5 0 1 0 -21 0zM724.5 105 a10.5 10.5 0 1 0 21 0 a10.5 10.5 0 1 0 -21 0z" fill="rgba(28, 58, 117, 1)"></path><path d="M651 399L735 483" stroke-width="7" stroke="rgba(28, 58, 117, 1)"></path><path d="M640.5 399 a10.5 10.5 0 1 0 21 0 a10.5 10.5 0 1 0 -21 0zM724.5 483 a10.5 10.5 0 1 0 21 0 a10.5 10.5 0 1 0 -21 0z" fill="rgba(28, 58, 117, 1)"></path><path d="M483 357L483 441" stroke-width="7" stroke="rgba(28, 58, 117, 1)"></path><path d="M472.5 357 a10.5 10.5 0 1 0 21 0 a10.5 10.5 0 1 0 -21 0zM472.5 441 a10.5 10.5 0 1 0 21 0 a10.5 10.5 0 1 0 -21 0z" fill="rgba(28, 58, 117, 1)"></path><path d="M777 63L861 63" stroke-width="7" stroke="rgba(28, 58, 117, 1)"></path><path d="M766.5 63 a10.5 10.5 0 1 0 21 0 a10.5 10.5 0 1 0 -21 0zM850.5 63 a10.5 10.5 0 1 0 21 0 a10.5 10.5 0 1 0 -21 0z" fill="rgba(28, 58, 117, 1)"></path></g></g><defs><mask id="SvgjsMask1094"><rect width="1000" height="560" fill="#ffffff"></rect></mask><mask id="SvgjsMask1095"><rect width="1000" height="560" fill="white"></rect><path d="M771.75 399 a5.25 5.25 0 1 0 10.5 0 a5.25 5.25 0 1 0 -10.5 0zM981.75 567 a5.25 5.25 0 1 0 10.5 0 a5.25 5.25 0 1 0 -10.5 0z" fill="black"></path><path d="M309.75 567 a5.25 5.25 0 1 0 10.5 0 a5.25 5.25 0 1 0 -10.5 0zM435.75 21 a5.25 5.25 0 1 0 10.5 0 a5.25 5.25 0 1 0 -10.5 0z" fill="black"></path><path d="M183.75 63 a5.25 5.25 0 1 0 10.5 0 a5.25 5.25 0 1 0 -10.5 0zM981.75 21 a5.25 5.25 0 1 0 10.5 0 a5.25 5.25 0 1 0 -10.5 0z" fill="black"></path><path d="M15.75 63 a5.25 5.25 0 1 0 10.5 0 a5.25 5.25 0 1 0 -10.5 0zM15.75 567 a5.25 5.25 0 1 0 10.5 0 a5.25 5.25 0 1 0 -10.5 0z" fill="black"></path><path d="M771.75 483 a5.25 5.25 0 1 0 10.5 0 a5.25 5.25 0 1 0 -10.5 0zM99.75 273 a5.25 5.25 0 1 0 10.5 0 a5.25 5.25 0 1 0 -10.5 0z" fill="black"></path><path d="M519.75 189 a5.25 5.25 0 1 0 10.5 0 a5.25 5.25 0 1 0 -10.5 0zM981.75 63 a5.25 5.25 0 1 0 10.5 0 a5.25 5.25 0 1 0 -10.5 0z" fill="black"></path><path d="M267.75 441 a5.25 5.25 0 1 0 10.5 0 a5.25 5.25 0 1 0 -10.5 0zM267.75 147 a5.25 5.25 0 1 0 10.5 0 a5.25 5.25 0 1 0 -10.5 0z" fill="black"></path><path d="M519.75 441 a5.25 5.25 0 1 0 10.5 0 a5.25 5.25 0 1 0 -10.5 0zM309.75 147 a5.25 5.25 0 1 0 10.5 0 a5.25 5.25 0 1 0 -10.5 0z" fill="black"></path><path d="M645.75 189 a5.25 5.25 0 1 0 10.5 0 a5.25 5.25 0 1 0 -10.5 0zM435.75 105 a5.25 5.25 0 1 0 10.5 0 a5.25 5.25 0 1 0 -10.5 0z" fill="black"></path><path d="M141.75 357 a5.25 5.25 0 1 0 10.5 0 a5.25 5.25 0 1 0 -10.5 0zM225.75 147 a5.25 5.25 0 1 0 10.5 0 a5.25 5.25 0 1 0 -10.5 0z" fill="black"></path><path d="M351.75 273 a5.25 5.25 0 1 0 10.5 0 a5.25 5.25 0 1 0 -10.5 0zM729.75 567 a5.25 5.25 0 1 0 10.5 0 a5.25 5.25 0 1 0 -10.5 0z" fill="black"></path><path d="M225.75 567 a5.25 5.25 0 1 0 10.5 0 a5.25 5.25 0 1 0 -10.5 0zM57.75 441 a5.25 5.25 0 1 0 10.5 0 a5.25 5.25 0 1 0 -10.5 0z" fill="black"></path><path d="M561.75 525 a5.25 5.25 0 1 0 10.5 0 a5.25 5.25 0 1 0 -10.5 0zM729.75 525 a5.25 5.25 0 1 0 10.5 0 a5.25 5.25 0 1 0 -10.5 0z" fill="black"></path><path d="M813.75 189 a5.25 5.25 0 1 0 10.5 0 a5.25 5.25 0 1 0 -10.5 0zM939.75 63 a5.25 5.25 0 1 0 10.5 0 a5.25 5.25 0 1 0 -10.5 0z" fill="black"></path><path d="M435.75 441 a5.25 5.25 0 1 0 10.5 0 a5.25 5.25 0 1 0 -10.5 0zM309.75 189 a5.25 5.25 0 1 0 10.5 0 a5.25 5.25 0 1 0 -10.5 0z" fill="black"></path><path d="M645.75 483 a5.25 5.25 0 1 0 10.5 0 a5.25 5.25 0 1 0 -10.5 0zM435.75 483 a5.25 5.25 0 1 0 10.5 0 a5.25 5.25 0 1 0 -10.5 0z" fill="black"></path><path d="M939.75 315 a5.25 5.25 0 1 0 10.5 0 a5.25 5.25 0 1 0 -10.5 0zM645.75 315 a5.25 5.25 0 1 0 10.5 0 a5.25 5.25 0 1 0 -10.5 0z" fill="black"></path><path d="M813.75 357 a5.25 5.25 0 1 0 10.5 0 a5.25 5.25 0 1 0 -10.5 0zM981.75 357 a5.25 5.25 0 1 0 10.5 0 a5.25 5.25 0 1 0 -10.5 0z" fill="black"></path><path d="M897.75 525 a5.25 5.25 0 1 0 10.5 0 a5.25 5.25 0 1 0 -10.5 0zM771.75 441 a5.25 5.25 0 1 0 10.5 0 a5.25 5.25 0 1 0 -10.5 0z" fill="black"></path><path d="M393.75 273 a5.25 5.25 0 1 0 10.5 0 a5.25 5.25 0 1 0 -10.5 0zM393.75 441 a5.25 5.25 0 1 0 10.5 0 a5.25 5.25 0 1 0 -10.5 0z" fill="black"></path><path d="M771.75 105 a5.25 5.25 0 1 0 10.5 0 a5.25 5.25 0 1 0 -10.5 0zM561.75 147 a5.25 5.25 0 1 0 10.5 0 a5.25 5.25 0 1 0 -10.5 0z" fill="black"></path><path d="M981.75 441 a5.25 5.25 0 1 0 10.5 0 a5.25 5.25 0 1 0 -10.5 0zM855.75 399 a5.25 5.25 0 1 0 10.5 0 a5.25 5.25 0 1 0 -10.5 0z" fill="black"></path><path d="M141.75 525 a5.25 5.25 0 1 0 10.5 0 a5.25 5.25 0 1 0 -10.5 0zM57.75 483 a5.25 5.25 0 1 0 10.5 0 a5.25 5.25 0 1 0 -10.5 0z" fill="black"></path><path d="M393.75 567 a5.25 5.25 0 1 0 10.5 0 a5.25 5.25 0 1 0 -10.5 0zM309.75 441 a5.25 5.25 0 1 0 10.5 0 a5.25 5.25 0 1 0 -10.5 0z" fill="black"></path><path d="M57.75 105 a5.25 5.25 0 1 0 10.5 0 a5.25 5.25 0 1 0 -10.5 0zM57.75 21 a5.25 5.25 0 1 0 10.5 0 a5.25 5.25 0 1 0 -10.5 0z" fill="black"></path><path d="M771.75 147 a5.25 5.25 0 1 0 10.5 0 a5.25 5.25 0 1 0 -10.5 0zM897.75 63 a5.25 5.25 0 1 0 10.5 0 a5.25 5.25 0 1 0 -10.5 0z" fill="black"></path><path d="M729.75 231 a5.25 5.25 0 1 0 10.5 0 a5.25 5.25 0 1 0 -10.5 0zM813.75 231 a5.25 5.25 0 1 0 10.5 0 a5.25 5.25 0 1 0 -10.5 0z" fill="black"></path><path d="M477.75 21 a5.25 5.25 0 1 0 10.5 0 a5.25 5.25 0 1 0 -10.5 0zM603.75 21 a5.25 5.25 0 1 0 10.5 0 a5.25 5.25 0 1 0 -10.5 0z" fill="black"></path><path d="M729.75 189 a5.25 5.25 0 1 0 10.5 0 a5.25 5.25 0 1 0 -10.5 0zM729.75 105 a5.25 5.25 0 1 0 10.5 0 a5.25 5.25 0 1 0 -10.5 0z" fill="black"></path><path d="M645.75 399 a5.25 5.25 0 1 0 10.5 0 a5.25 5.25 0 1 0 -10.5 0zM729.75 483 a5.25 5.25 0 1 0 10.5 0 a5.25 5.25 0 1 0 -10.5 0z" fill="black"></path><path d="M477.75 357 a5.25 5.25 0 1 0 10.5 0 a5.25 5.25 0 1 0 -10.5 0zM477.75 441 a5.25 5.25 0 1 0 10.5 0 a5.25 5.25 0 1 0 -10.5 0z" fill="black"></path><path d="M771.75 63 a5.25 5.25 0 1 0 10.5 0 a5.25 5.25 0 1 0 -10.5 0zM855.75 63 a5.25 5.25 0 1 0 10.5 0 a5.25 5.25 0 1 0 -10.5 0z" fill="black"></path></mask></defs></svg>